<svg xmlns="http://www.w3.org/2000/svg" viewBox="0 0 206.41 206.41">
  <title>&#x8D44;&#x6E90; 5</title>
  <g fill-rule="evenodd">
    <path
      d="M103.29 206.41a102.91 102.91 0 0 1-75.38-32.72c-6-6.39-.16-15.32 7.23-16.82 31.8-6.48 73.39 33.68 114 29.17a56 56 0 0 0 22.95-8c2-1.16 4.18-2.41 5.69-3.38a102.94 102.94 0 0 1-74.46 31.74z"
      fill="#8e03ff" />
    <path
      d="M103.21 206.41a102.91 102.91 0 0 0 75.37-32.72c6-6.4.15-15.32-7.22-16.82-24.83-5.06-55.63 18.31-87.25 26.66-18.14 4.79-40.38 3.72-55.3-8.88a102.8 102.8 0 0 0 74.4 31.76z"
      fill="#24d3f1" />
    <path
      d="M103.21 0a102.91 102.91 0 0 1 75.37 32.72c6 6.4.15 15.32-7.22 16.82C139.55 56 98 15.86 57.38 20.37a56 56 0 0 0-22.94 8c-2 1.17-4.19 2.41-5.69 3.39A102.87 102.87 0 0 1 103.21 0z"
      fill="#8e03ff" />
    <path
      d="M103.29 0a102.91 102.91 0 0 0-75.38 32.72c-6 6.4-.14 15.32 7.23 16.82 31.8 6.48 73.39-33.68 114-29.17a56 56 0 0 1 22.95 8c2 1.17 4.18 2.41 5.69 3.39A102.91 102.91 0 0 0 103.29 0z"
      fill="#24d3f1" />
    <path
      d="M1.55 121.12c16.45-61.88 186.89 70.27 202.91 2.11a104 104 0 0 0 .41-37.88C191.77 135 85.22 63.54 31.32 62.48c-15.63-.31-27.58 9.66-30.14 25.08a104.31 104.31 0 0 0 .37 33.56z"
      fill="#8e03ff" />
    <path
      d="M204.86 121.12c-15.29-57.41-159.3 50.11-196.19 16-3.28-3-5.39-8.19-6.72-13.87a104 104 0 0 1-.41-37.88c15.6 59.09 163.66-53.44 197.61-14.49 3.09 3.54 5 10 6.08 16.7a104.31 104.31 0 0 1-.37 33.56z"
      fill="#24d3f1" />
  </g>
</svg>